{"scene":0,"asset":{"generator":"ImageToStl.com","version":"2.0"},"scenes":[{"name":"Scene","nodes":[0]}],"nodes":[{"name":"Node0","children":[1,2]},{"name":"Node1","mesh":0},{"name":"Node2","mesh":1}],"materials":[{"name":"x1","pbrMetallicRoughness":{"baseColorFactor":[0.85,0.85,0.85,1.0],"metallicFactor":0.05,"roughnessFactor":0.5},"doubleSided":true}],"meshes":[{"name":"Mesh0","primitives":[{"indices":2,"material":0,"attributes":{"POSITION":0,"NORMAL":1}}]},{"name":"Mesh0","primitives":[{"indices":5,"material":0,"attributes":{"POSITION":3,"NORMAL":4}}]}],"accessors":[{"bufferView":0,"componentType":5126,"count":19344,"type":"VEC3","min":[-33.333332,-50.0,-5.0],"max":[34.375,28.125,4.882353]},{"bufferView":1,"componentType":5126,"count":19344,"type":"VEC3"},{"bufferView":2,"componentType":5123,"count":21957,"type":"SCALAR"},{"bufferView":3,"componentType":5126,"count":742,"type":"VEC3","min":[-33.333332,-50.0,-5.0],"max":[34.375,28.125,-5.0]},{"bufferView":4,"componentType":5126,"count":742,"type":"VEC3"},{"bufferView":5,"componentType":5123,"count":3693,"type":"SCALAR"}],"bufferViews":[{"target":34962,"buffer":0,"byteLength":232128,"byteOffset":0},{"target":34962,"buffer":0,"byteLength":232128,"byteOffset":232128},{"target":34963,"buffer":0,"byteLength":43914,"byteOffset":464256},{"target":34962,"buffer":0,"byteLength":8904,"byteOffset":508172},{"target":34962,"buffer":0,"byteLength":8904,"byteOffset":517076},{"target":34963,"buffer":0,"byteLength":7386,"byteOffset":525980}],"buffers":[{"byteLength":533368,"uri":"data:application/octet-stream;base64,"}]}